<?xml version="1.0" encoding="iso-8859-1"?>
<!-- Generator: Adobe Illustrator 19.0.0, SVG Export Plug-In . SVG Version: 6.00 Build 0)  -->
<svg version="1.1" id="Layer_1" xmlns="http://www.w3.org/2000/svg" xmlns:xlink="http://www.w3.org/1999/xlink" x="0px" y="0px"
	 viewBox="0 0 512 512" style="enable-background:new 0 0 512 512;" xml:space="preserve">
<path style="fill:#FFC1A6;" d="M448.043,512c28.648-60.73,42.511-138.378,42.64-208.755l0.004-0.805
	c-123.542-14.092-234.689,49.026-234.689,49.026S144.853,288.349,21.31,302.441l0.004,0.668
	C21.427,373.521,35.289,451.23,63.955,512L448.043,512L448.043,512z"/>
<path style="fill:#E6AE95;" d="M246.94,346.731c-0.742,1.417-1.167,3.026-1.167,4.736V512h20.455V351.467
	c0-1.71-0.425-3.319-1.167-4.736c-5.875,2.929-9.06,4.736-9.06,4.736S252.815,349.66,246.94,346.731z"/>
<path style="fill:#BA82AA;" d="M474.085,188.806c-3.809,1.649-7.732,3.254-11.774,4.812
	c-55.54,21.426-128.811,33.225-206.311,33.225s-150.77-11.8-206.31-33.225c-4.041-1.559-7.965-3.165-11.774-4.812l-0.042,0.117
	c-1.527,4.481-2.965,8.982-4.285,13.512c-5.716,19.605-9.161,39.834-10.766,60.182c-1.016,12.881-1.516,26.216-1.511,39.824
	c123.542-14.092,234.689,49.026,234.689,49.026s111.146-63.118,234.689-49.026c0.005-13.608-0.495-26.944-1.511-39.824
	c-1.605-20.347-5.05-40.577-10.766-60.182c-1.323-4.537-2.763-9.045-4.291-13.533L474.085,188.806z"/>
<path style="fill:#FFC1A6;" d="M93.889,0c2.914,49.529-16.687,93.755-35.775,138.114c3.533,1.548,7.255,3.089,11.208,4.613
	c49.431,19.068,115.728,29.569,186.679,29.569s137.248-10.502,186.679-29.569c3.953-1.525,7.673-3.065,11.208-4.613
	C434.798,93.755,415.197,49.529,418.111,0H93.889z"/>
<path style="fill:#FCCFEF;" d="M442.68,142.728c-49.431,19.068-115.728,29.569-186.679,29.569s-137.248-10.501-186.679-29.569
	c-3.955-1.526-7.677-3.067-11.213-4.616c-7.222,16.78-14.363,33.581-20.192,50.694c3.809,1.649,7.733,3.254,11.774,4.812
	c55.54,21.426,128.809,33.225,206.31,33.225s150.77-11.8,206.311-33.225c4.041-1.559,7.964-3.164,11.774-4.812
	c-5.828-17.112-12.97-33.914-20.192-50.694C450.357,139.66,446.635,141.202,442.68,142.728z"/>
<path style="opacity:0.1;enable-background:new    ;" d="M75.859,302.441c-0.005-13.608,0.495-26.944,1.511-39.824
	c1.605-20.347,5.05-40.577,10.766-60.182c1.321-4.53,2.759-9.031,4.285-13.512l0.042-0.117c5.828-17.112,12.97-33.914,20.192-50.694
	c0.001,0.001,0.004,0.001,0.005,0.003C131.749,93.755,151.349,49.529,148.435,0H93.889c2.914,49.529-16.687,93.755-35.775,138.114
	c-0.001-0.001-0.004-0.001-0.005-0.003c-7.222,16.78-14.363,33.581-20.192,50.694l-0.042,0.117
	c-1.527,4.481-2.965,8.982-4.285,13.512c-5.716,19.605-9.161,39.834-10.766,60.182c-1.016,12.88-1.516,26.216-1.511,39.824
	l0.004,0.668C21.43,373.521,35.291,451.23,63.958,512h54.546c-28.665-60.768-42.528-138.479-42.641-208.891L75.859,302.441z"/>
<path style="fill:#E6AE95;" d="M256,141.266c-5.648,0-10.227-4.579-10.227-10.227v-17.663c0-5.648,4.579-10.227,10.227-10.227
	s10.227,4.579,10.227,10.227v17.663C266.227,136.687,261.648,141.266,256,141.266z"/>
<g>
</g>
<g>
</g>
<g>
</g>
<g>
</g>
<g>
</g>
<g>
</g>
<g>
</g>
<g>
</g>
<g>
</g>
<g>
</g>
<g>
</g>
<g>
</g>
<g>
</g>
<g>
</g>
<g>
</g>
</svg>
